# xmcd
#
# Track frame offsets:
# 150
# 13922
# 29565
# 42615
# 59156
# 74153
# 89467
# 102226
# 117724
# 134927
# 153391
# 165845
# 178724
# 194682
# 208043
# 223094
# 237568
#
# Disc length: 3390 seconds
#
#
# Revision: 0
# Processed by: cddbd v1.5.2PL0 Copyright (c) Steve Scherf et al.
# Submitted via: FreeRIP 2.951 
#
DISCID=1c0d3c11
DTITLE=Annett Louisan - Annett Louisan
DYEAR=2006
DGENRE=Chanson
TTITLE0=Das Spiel
TTITLE1=Das Liebeslied
TTITLE2=Das große Erwachen
TTITLE3=Torsten Schmidt
TTITLE4=Chancenlos
TTITLE5=Gedacht ich sage nein
TTITLE6=Eve
TTITLE7=Gedacht ich sage nein
TTITLE8=Wo ist das Problem?
TTITLE9=Er gehörte mal mir
TTITLE10=Die Lösung
TTITLE11=Der den ich will
TTITLE12=Vielleicht
TTITLE13=Widder wider Willen
TTITLE14=Beerdigung
TTITLE15=Ausgesprochen unausgesprochen
TTITLE16=Was hast Du vor?
EXTD=
EXTT0=
EXTT1=
EXTT2=
EXTT3=
EXTT4=
EXTT5=
EXTT6=
EXTT7=
EXTT8=
EXTT9=
EXTT10=
EXTT11=
EXTT12=
EXTT13=
EXTT14=
EXTT15=
EXTT16=
PLAYORDER=
